<?xml version="1.0" encoding="utf-8"?>
<!-- Generator: Adobe Illustrator 26.3.1, SVG Export Plug-In . SVG Version: 6.00 Build 0)  -->
<svg version="1.1" id="Layer_1" xmlns="http://www.w3.org/2000/svg" xmlns:xlink="http://www.w3.org/1999/xlink" x="0px" y="0px"
	 viewBox="0 0 24 24" style="enable-background:new 0 0 24 24;" xml:space="preserve">
<style type="text/css">
	.st0{fill:#5865F2;}
</style>
<path class="st0" d="M19.4,5.1C18,4.5,16.5,4,15,3.8h-0.1c-0.2,0.4-0.4,0.8-0.5,1.1c-1.6-0.3-3.3-0.3-5,0C9.3,4.5,9.1,4.1,8.8,3.8
	c0,0,0,0-0.1,0c-1.5,0.2-3,0.7-4.3,1.4l0,0c-2.8,4.1-3.6,8.3-3.2,12.3c0,0,0,0,0,0.1c1.9,1.4,3.6,2.2,5.4,2.7h0.1
	c0.5-0.5,0.8-1.2,1.1-1.8v-0.1c-0.6-0.2-1.2-0.5-1.7-0.8c0,0-0.1-0.1,0-0.1c0.1-0.1,0.3-0.2,0.4-0.3h0.1c3.5,1.6,7.4,1.6,10.9,0h0.1
	c0.1,0.1,0.2,0.2,0.4,0.3v0.1c-0.5,0.3-1.1,0.5-1.7,0.8c0,0-0.1,0.1,0,0.1c0.4,0.6,0.7,1.3,1.1,1.8h0.1c1.8-0.5,3.5-1.4,5.4-2.7
	c0,0,0,0,0-0.1C23.1,12.8,21.9,8.7,19.4,5.1L19.4,5.1z M8.3,14.9c-1.1,0-2-1-2-2.2s0.9-2.2,2-2.2s2,1,2,2.2S9.4,14.9,8.3,14.9z
	 M15.5,14.9c-1.1,0-2-1-2-2.2s0.9-2.2,2-2.2s2,1,2,2.2S16.6,14.9,15.5,14.9z"/>
</svg>
