<?xml version="1.0" encoding="utf-8"?>
<!-- Generator: Adobe Illustrator 26.3.1, SVG Export Plug-In . SVG Version: 6.00 Build 0)  -->
<svg version="1.1" id="Layer_1" xmlns="http://www.w3.org/2000/svg" xmlns:xlink="http://www.w3.org/1999/xlink" x="0px" y="0px"
	 viewBox="0 0 132 132" style="enable-background:new 0 0 132 132;" xml:space="preserve">
<style type="text/css">
	.st0{fill:url(#SVGID_1_);}
	.st1{fill:url(#SVGID_00000177463204617325825770000003653677940997153418_);}
	.st2{fill:#FFFFFF;}
</style>
<radialGradient id="SVGID_1_" cx="-966.3489" cy="-458.3842" r="53.1915" gradientTransform="matrix(0 -1.982 -1.8439 0 -804.1507 -1787.9041)" gradientUnits="userSpaceOnUse">
	<stop  offset="0" style="stop-color:#FFDD55"/>
	<stop  offset="0.1" style="stop-color:#FFDD55"/>
	<stop  offset="0.5" style="stop-color:#FF543E"/>
	<stop  offset="1" style="stop-color:#C837AB"/>
</radialGradient>
<path class="st0" d="M66,12.8c-22.2,0-28.7,0-30,0.1c-4.6,0.4-7.4,1.1-10.5,2.6c-2.4,1.2-4.3,2.6-6.1,4.5c-3.4,3.5-5.4,7.8-6.2,12.9
	c-0.4,2.5-0.5,3-0.5,15.7c0,4.2,0,9.8,0,17.3c0,22.2,0,28.7,0.1,29.9c0.4,4.4,1.1,7.2,2.5,10.3c2.8,5.8,8.2,10.2,14.5,11.9
	c2.2,0.6,4.6,0.9,7.7,1c1.3,0.1,14.7,0.1,28.2,0.1s26.9,0,28.2-0.1c3.6-0.2,5.7-0.5,8-1c6.4-1.6,11.7-6,14.5-11.9
	c1.4-3,2.2-5.9,2.5-10.1c0.1-0.9,0.1-15.5,0.1-30.1c0-14.6,0-29.2-0.1-30.1c-0.3-4.3-1.1-7.1-2.6-10.2c-1.2-2.5-2.6-4.3-4.6-6.2
	c-3.5-3.4-7.8-5.4-13-6.1c-2.5-0.4-3-0.5-15.7-0.5H66z"/>
<radialGradient id="SVGID_00000040575342629779688520000009366600770566629561_" cx="-9.2396" cy="351.5151" r="53.1915" gradientTransform="matrix(0.1739 0.8687 3.5818 -0.7172 -1262.4722 280.6022)" gradientUnits="userSpaceOnUse">
	<stop  offset="0" style="stop-color:#3771C8"/>
	<stop  offset="0.128" style="stop-color:#3771C8"/>
	<stop  offset="1" style="stop-color:#6600FF;stop-opacity:0"/>
</radialGradient>
<path style="fill:url(#SVGID_00000040575342629779688520000009366600770566629561_);" d="M66,12.8c-22.2,0-28.7,0-30,0.1
	c-4.6,0.4-7.4,1.1-10.5,2.6c-2.4,1.2-4.3,2.6-6.1,4.5c-3.4,3.5-5.4,7.8-6.2,12.9c-0.4,2.5-0.5,3-0.5,15.7c0,4.2,0,9.8,0,17.3
	c0,22.2,0,28.7,0.1,29.9c0.4,4.4,1.1,7.2,2.5,10.3c2.8,5.8,8.2,10.2,14.5,11.9c2.2,0.6,4.6,0.9,7.7,1c1.3,0.1,14.7,0.1,28.2,0.1
	s26.9,0,28.2-0.1c3.6-0.2,5.7-0.5,8-1c6.4-1.6,11.7-6,14.5-11.9c1.4-3,2.2-5.9,2.5-10.1c0.1-0.9,0.1-15.5,0.1-30.1
	c0-14.6,0-29.2-0.1-30.1c-0.3-4.3-1.1-7.1-2.6-10.2c-1.2-2.5-2.6-4.3-4.6-6.2c-3.5-3.4-7.8-5.4-13-6.1c-2.5-0.4-3-0.5-15.7-0.5H66z"
	/>
<path class="st2" d="M66,26.7c-10.7,0-12,0-16.2,0.2c-4.2,0.2-7,0.9-9.5,1.8c-2.6,1-4.8,2.3-7,4.5c-2.2,2.2-3.5,4.4-4.5,7
	c-1,2.5-1.6,5.4-1.8,9.5c-0.2,4.2-0.2,5.5-0.2,16.2s0,12,0.2,16.2c0.2,4.2,0.9,7,1.8,9.5c1,2.6,2.3,4.8,4.5,7c2.2,2.2,4.4,3.5,7,4.5
	c2.5,1,5.4,1.6,9.5,1.8c4.2,0.2,5.5,0.2,16.2,0.2c10.7,0,12,0,16.2-0.2c4.2-0.2,7-0.9,9.5-1.8c2.6-1,4.8-2.3,7-4.5
	c2.2-2.2,3.5-4.4,4.5-7c1-2.5,1.6-5.4,1.8-9.5c0.2-4.2,0.2-5.5,0.2-16.2s0-12-0.2-16.2c-0.2-4.2-0.9-7-1.8-9.5c-1-2.6-2.3-4.8-4.5-7
	c-2.2-2.2-4.4-3.5-7-4.5c-2.5-1-5.4-1.6-9.5-1.8C78,26.8,76.7,26.7,66,26.7L66,26.7z M62.5,33.8c1,0,2.2,0,3.5,0
	c10.5,0,11.7,0,15.9,0.2c3.8,0.2,5.9,0.8,7.3,1.4c1.8,0.7,3.1,1.6,4.5,2.9c1.4,1.4,2.2,2.7,2.9,4.5c0.5,1.4,1.2,3.5,1.4,7.3
	c0.2,4.1,0.2,5.4,0.2,15.9s0,11.7-0.2,15.9c-0.2,3.8-0.8,5.9-1.4,7.3c-0.7,1.8-1.6,3.1-2.9,4.5c-1.4,1.4-2.7,2.2-4.5,2.9
	c-1.4,0.5-3.5,1.2-7.3,1.4c-4.1,0.2-5.4,0.2-15.9,0.2c-10.5,0-11.7,0-15.9-0.2c-3.8-0.2-5.9-0.8-7.3-1.4c-1.8-0.7-3.1-1.6-4.5-2.9
	c-1.4-1.4-2.2-2.7-2.9-4.5c-0.5-1.4-1.2-3.5-1.4-7.3c-0.2-4.1-0.2-5.4-0.2-15.9s0-11.7,0.2-15.9c0.2-3.8,0.8-5.9,1.4-7.3
	c0.7-1.8,1.6-3.1,2.9-4.5c1.4-1.4,2.7-2.2,4.5-2.9c1.4-0.5,3.5-1.2,7.3-1.4C53.7,33.9,55.2,33.8,62.5,33.8L62.5,33.8z M87,40.3
	c-2.6,0-4.7,2.1-4.7,4.7c0,2.6,2.1,4.7,4.7,4.7c2.6,0,4.7-2.1,4.7-4.7S89.6,40.3,87,40.3L87,40.3z M66,45.8
	c-11.1,0-20.2,9-20.2,20.2s9,20.2,20.2,20.2c11.1,0,20.2-9,20.2-20.2S77.1,45.8,66,45.8L66,45.8z M66,52.9c7.2,0,13.1,5.9,13.1,13.1
	c0,7.2-5.9,13.1-13.1,13.1c-7.2,0-13.1-5.9-13.1-13.1C52.9,58.8,58.8,52.9,66,52.9z"/>
</svg>
