<?xml version="1.0" encoding="utf-8"?>
<!-- Generator: Adobe Illustrator 26.3.1, SVG Export Plug-In . SVG Version: 6.00 Build 0)  -->
<svg version="1.1" id="Layer_1" xmlns="http://www.w3.org/2000/svg" xmlns:xlink="http://www.w3.org/1999/xlink" x="0px" y="0px"
	 viewBox="0 0 612 517.2" style="enable-background:new 0 0 612 517.2;" xml:space="preserve">
<style type="text/css">
	.st0{fill:#E47C17;}
</style>
<path class="st0" d="M0,129.4c0.6,0,1.2,0,1.9,0c42.6,0,85.2,0,127.8,0c1.4,0,1.7,0.3,1.7,1.7c0,128,0,256,0,384
	c0,1.4-0.3,1.7-1.7,1.7c-42.6,0-85.2,0-127.8,0c-0.6,0-1.2,0-1.9,0L0,129.4z"/>
<path d="M0,99.9c0.6-0.2,1.1-0.6,1.5-1.1c2.3-2.3,4.7-4.7,7-7c7.4-7.3,14.8-14.7,22.3-22C36.3,64.7,41.5,59.2,47,54
	c5-4.7,9.7-9.7,14.7-14.4c5.7-5.4,11.1-11,16.7-16.4c5.3-5,10.3-10.3,15.6-15.3c2.4-2.3,4.8-4.6,7.2-7c0.3-0.4,0.9-0.6,1.4-0.5
	c0.3,0,0.6,0,0.8,0h130.3c-2.6,2.7-5.2,5.5-7.8,8.2c-7.4,7.4-14.9,14.8-22.4,22.1c-5.6,5.3-10.9,10.9-16.5,16.2
	c-5.2,4.9-10.1,10.1-15.3,15c-5.5,5.2-10.7,10.8-16.2,16c-4.4,4.1-8.6,8.4-12.9,12.6c-3.4,3.3-6.8,6.6-10.2,10
	c-0.6,0.5-1.3,0.7-2.1,0.6c-41.1,0-82.2,0-123.3,0c-2.3,0-4.7,0-7,0.1V99.9z"/>
<path class="st0" d="M453.2,517c0.1,0,0.1,0,0.1,0.1H321.6c0-0.1,0-0.1,0.1-0.1c0.5,0,1-0.1,1.4-0.1h128.7
	C452.3,517,452.8,517,453.2,517z"/>
<path d="M453.2,517c-0.5,0-1-0.1-1.4-0.1H323.1c-0.5,0-1,0-1.4,0.1c-0.3-0.2-0.3-0.5-0.3-0.9c0-0.7,0-1.4,0-2.1
	c0-127.7,0-255.3,0-383c0-1.4,0.3-1.8,1.8-1.8c42.9,0,85.8,0,128.7,0c1.5,0,1.7,0.5,1.7,1.8c0,95.2,0,190.5,0,285.7
	c0,32.9,0,65.7,0,98.6C453.5,515.8,453.6,516.5,453.2,517z"/>
<path class="st0" d="M190.7,100.7c3.4-3.5,6.7-7.1,10.2-10.6c7.2-7.1,14.4-14.2,21.6-21.2c12.4-12.2,24.8-24.3,37.1-36.5
	c10.4-10.2,20.8-20.4,31.1-30.6c0.9-1,2.2-1.5,3.5-1.4c105.2,0,210.4,0,315.5,0h1.9c-1.4,1.5-2.7,2.8-3.9,4.2
	c-11.1,11.5-22.2,23-33.3,34.5c-7.1,7.4-14.2,14.8-21.3,22.2c-9.6,10-19.2,20-28.8,29.9c-2.8,2.9-5.5,5.8-8.3,8.7
	c-0.5,0.6-1.3,1-2.1,1c-107.8,0-215.5,0-323.3,0L190.7,100.7z"/>
</svg>
